<svg version="1.1" xmlns="http://www.w3.org/2000/svg" xmlns:xlink="http://www.w3.org/1999/xlink" width="205.13377" height="201.51593" viewBox="0,0,205.13377,201.51593"><g transform="translate(-137.43311,-79.24203)"><g data-paper-data="{&quot;isPaintingLayer&quot;:true}" fill-rule="nonzero" stroke="none" stroke-width="0" stroke-linecap="butt" stroke-linejoin="miter" stroke-miterlimit="10" stroke-dasharray="" stroke-dashoffset="0" style="mix-blend-mode: normal"><path d="M137.43311,180c0,-55.64708 45.92076,-100.75797 102.56689,-100.75797c56.64613,0 102.56689,45.11088 102.56689,100.75797c0,55.64709 -45.92075,100.75797 -102.56689,100.75797c-56.64613,0 -102.56689,-45.11088 -102.56689,-100.75797z" fill="#00ff84"/><path d="M156.80752,180c0,-44.98176 37.24654,-81.44667 83.19248,-81.44667c45.94594,0 83.19248,36.46491 83.19248,81.44668c0,44.98176 -37.24654,81.44668 -83.19248,81.44668c-45.94594,0 -83.19248,-36.46492 -83.19248,-81.44668z" fill="#ffffff"/><path d="M208.73151,126.78455c19.85302,7.95577 29.71618,68.73317 29.71618,68.73317c0,0 -39.17497,-0.69702 -47.02,-18.84249c-7.84503,-18.14547 -2.5492,-57.84644 17.30382,-49.89067z" data-paper-data="{&quot;index&quot;:null}" fill="#00ff84"/><path d="M202.64585,211.2796c5.0795,-10.08808 36.04658,-12.3856 36.04658,-12.3856c0,0 -3.11409,29.59423 -17.36701,34.49154c-14.25293,4.8973 -23.75906,-12.01785 -18.67957,-22.10593z" data-paper-data="{&quot;index&quot;:null}" fill="#00ff84"/><g fill="#00ff84"><path d="M288.57231,176.67522c-7.84503,18.14547 -47.02,18.84249 -47.02,18.84249c0,0 9.86316,-60.7774 29.71618,-68.73316c19.85302,-7.95577 25.14885,31.74521 17.30382,49.89067z" data-paper-data="{&quot;index&quot;:null}"/><path d="M258.67458,233.38553c-14.25293,-4.8973 -17.36701,-34.49153 -17.36701,-34.49153c0,0 30.96708,2.29753 36.04658,12.3856c5.07949,10.08808 -4.42665,27.00323 -18.67957,22.10593z" data-paper-data="{&quot;index&quot;:null}"/></g></g></g></svg>